<?xml version="1.0" encoding="UTF-8" standalone="no"?>
<!-- Created with Inkscape (http://www.inkscape.org/) -->
<!-- Modified by shengpo (owen.s096-at-gmail.com) -->

<svg
   xmlns:dc="http://purl.org/dc/elements/1.1/"
   xmlns:cc="http://creativecommons.org/ns#"
   xmlns:rdf="http://www.w3.org/1999/02/22-rdf-syntax-ns#"
   xmlns:svg="http://www.w3.org/2000/svg"
   xmlns="http://www.w3.org/2000/svg"
   version="1.1"
   width="100%"
   height="100%"
   viewBox="0 0 128 128">
  <metadata>
    <rdf:RDF>
      <cc:Work rdf:about="">
        <dc:format>image/svg+xml</dc:format>
        <dc:type rdf:resource="http://purl.org/dc/dcmitype/StillImage" />
        <dc:title />
      </cc:Work>
    </rdf:RDF>
  </metadata>
  <defs />
  <g id="ot-logo-container" transform="matrix(0.31527,0,0,0.31527,-806.61086,356.26602)">
    <path style="fill:#000000" d="m 2761.4688,-1130.0312 c -5.1391,0 -10.2382,0.1872 -15.2813,0.5624 l -4.2187,1.9376 15.7187,34.4062 13.6563,-36.6562 c -3.2747,-0.157 -6.5616,-0.25 -9.875,-0.25 z" />
    <path style="fill:#000000" d="m 2774.1562,-1129.625 -13.9374,37.4375 34.375,-15.7187 -9.4688,-20.75 c -3.63,-0.4216 -7.2829,-0.7414 -10.9688,-0.9688 z" />
    <path style="fill:#000000" d="m 2737.6875,-1128.625 c -10.3262,1.2057 -20.4257,3.1791 -30.2187,5.875 l -3.5626,9.5625 33.7813,-15.4375 z" />
    <path style="fill:#000000" d="m 2788.375,-1128.25 7.9688,17.4688 5.6562,-15.1876 c -4.4874,-0.9094 -9.0354,-1.6731 -13.625,-2.2812 z" />
    <path style="fill:#000000" d="m 2737.7188,-1125.5938 -34.375,15.7188 15.7187,34.4062 18.6563,-50.125 z" />
    <path style="fill:#000000" d="m 2804.6562,-1125.4062 -5.8124,15.5624 23.7187,-10.8437 c -5.853,-1.8446 -11.8377,-3.4036 -17.9063,-4.7187 z" />
    <path style="fill:#000000" d="m 2740.25,-1124.6562 -18.6875,50.125 34.4063,-15.7188 -15.7188,-34.4062 z" />
    <path style="fill:#000000" d="m 2704.2812,-1121.8438 c -1.881,0.5514 -3.767,1.1149 -5.625,1.7188 l 2.75,6.0312 2.875,-7.75 z" />
    <path style="fill:#000000" d="m 2826.4688,-1119.4062 -28.1876,12.875 15.7188,34.375 17.0312,-45.6563 c -1.5121,-0.5516 -3.0338,-1.0773 -4.5624,-1.5937 z" />
    <path style="fill:#000000" d="m 2696,-1119.25 c -8.9659,3.0522 -17.6163,6.7465 -25.9688,10.9688 l -4.7812,12.7812 34.4062,-15.7188 -3.6562,-8.0312 z" />
    <path style="fill:#000000" d="m 2833.5312,-1116.8438 -17.0312,45.625 34.4062,-15.7187 -12.8437,-28.125 c -1.4998,-0.6116 -3.0138,-1.2048 -4.5313,-1.7813 z" />
    <path style="fill:#000000" d="m 2841.8438,-1113.4688 10.8124,23.6563 5.8126,-15.5937 c -5.3941,-2.9399 -10.9488,-5.6119 -16.625,-8.0626 z" />
    <path style="fill:#000000" d="m 2699.0938,-1107.9062 -34.4063,15.7187 15.7187,34.375 18.6876,-50.0937 z" />
    <path style="fill:#000000" d="m 2701.5938,-1107 -18.6876,50.125 34.4063,-15.7188 -15.7187,-34.4062 z" />
    <path style="fill:#000000" d="m 2666.5,-1106.4688 c -2.2427,1.1896 -4.4645,2.4174 -6.6562,3.6876 l 2.9062,6.3437 3.75,-10.0313 z" />
    <path style="fill:#000000" d="m 2794.0312,-1104.5938 -34.375,15.7188 15.7188,34.4062 18.6562,-50.125 z" />
    <path style="fill:#000000" d="m 2860.8125,-1104.0625 -5.6563,15.1875 17.5,-8 c -3.8527,-2.5271 -7.8147,-4.9215 -11.8437,-7.1875 z" />
    <path style="fill:#000000" d="m 2796.5312,-1103.6562 -18.6562,50.125 34.375,-15.75 -15.7188,-34.375 z" />
    <path style="fill:#000000" d="m 2657.4375,-1101.3438 c -10.8043,6.4623 -20.963,13.8953 -30.3437,22.1876 l -0.5,1.3124 34.4062,-15.7187 -3.5625,-7.7813 z" />
    <path style="fill:#000000" d="m 2875.375,-1095.0625 -20.7812,9.5 15.7187,34.4063 13.9687,-37.5 c -2.9084,-2.2133 -5.8777,-4.3495 -8.9062,-6.4063 z" />
    <path style="fill:#000000" d="m 2660.4375,-1090.25 -34.4063,15.7188 15.7188,34.375 18.6875,-50.0938 z" />
    <path style="fill:#000000" d="m 2662.9375,-1089.3125 -18.6563,50.0937 34.375,-15.7187 -15.7187,-34.375 z" />
    <path style="fill:#000000" d="m 2755.4062,-1086.9375 -34.4062,15.7187 15.7188,34.4063 18.6874,-50.125 z" />
    <path style="fill:#000000" d="m 2886.5,-1086.9375 -13.6875,36.7187 34.4063,-15.7187 -2.0313,-4.4375 c -5.8791,-5.8944 -12.1237,-11.4229 -18.6875,-16.5625 z" />
    <path style="fill:#000000" d="m 2757.9062,-1086 -18.6874,50.125 34.4062,-15.7188 -15.7188,-34.4062 z" />
    <path style="fill:#000000" d="m 2852.8438,-1082.6875 -18.6563,50.125 34.375,-15.7187 -15.7187,-34.4063 z" />
    <path style="fill:#000000" d="m 2621.7812,-1072.5938 -3.3124,1.5313 c -8.9489,8.8851 -17.1036,18.5832 -24.2813,29 l 8.9375,19.5937 18.6562,-50.125 z" />
    <path style="fill:#000000" d="m 2624.3125,-1071.6562 -18.6875,50.0937 34.4062,-15.7187 -15.7187,-34.375 z" />
    <path style="fill:#000000" d="m 2716.75,-1069.2812 -34.4062,15.7187 15.7187,34.4063 18.6875,-50.125 z" />
    <path style="fill:#000000" d="m 2719.25,-1068.3438 -18.6875,50.125 34.4063,-15.7187 -15.7188,-34.4063 z" />
    <path style="fill:#000000" d="m 2811.6875,-1065.9375 -34.375,15.7187 15.7187,34.375 18.6563,-50.0937 z" />
    <path style="fill:#000000" d="m 2911.0625,-1064.25 15.5625,34.0625 3.625,-9.6875 c -5.769,-8.6109 -12.2038,-16.7646 -19.1875,-24.375 z" />
    <path style="fill:#000000" d="m 2906.6562,-1062.625 -34.4062,15.7188 15.7188,34.4062 18.6874,-50.125 z" />
    <path style="fill:#000000" d="m 2909.1562,-1061.6875 -18.6874,50.125 34.4062,-15.75 -15.7188,-34.375 z" />
    <path style="fill:#000000" d="m 2678.0938,-1051.625 -34.375,15.7188 15.7187,34.4062 18.6563,-50.125 z" />
    <path style="fill:#000000" d="m 2680.5938,-1050.6875 -18.6563,50.125 34.375,-15.7187 -15.7187,-34.4063 z" />
    <path style="fill:#000000" d="m 2868,-1044.9688 -34.4062,15.7188 15.7187,34.4062 18.6875,-50.1251 z" />
    <path style="fill:#000000" d="m 2870.5,-1044.0312 -18.6562,50.1249 34.375,-15.7188 -15.7188,-34.4062 z" />
    <path style="fill:#000000" d="m 2592.3438,-1039.3438 c -6.6493,9.9919 -12.4307,20.6186 -17.25,31.75 l 26.2812,-12 -9.0312,-19.75 z" />
    <path style="fill:#000000" d="m 2932.0625,-1037.125 -2.9375,7.875 6.0938,-2.7812 c -1.0373,-1.7128 -2.0703,-3.4147 -3.1563,-5.0938 z" />
    <path style="fill:#000000" d="m 2639.4688,-1033.9375 -34.4063,15.7187 15.7187,34.3751 18.6876,-50.0938 z" />
    <path style="fill:#000000" d="m 2641.9688,-1033.0312 -18.6876,50.1249 34.4063,-15.7188 -15.7187,-34.4062 z" />
    <path style="fill:#000000" d="m 2736.9062,-1029.6875 -18.6562,50.0938 34.375,-15.7188 -15.7188,-34.375 z" />
    <path style="fill:#000000" d="m 2936.625,-1029.625 -8.0625,3.6875 15.7187,34.4062 4.8438,-13 c -3.5926,-8.6889 -7.7849,-17.0617 -12.5,-25.0938 z" />
    <path style="fill:#000000" d="m 2924.3125,-1023.9688 -34.4063,15.7188 15.7188,34.375 18.6875,-50.0938 z" />
    <path style="fill:#000000" d="m 2926.8125,-1023.0625 -18.6875,50.125 34.4062,-15.7188 -15.7187,-34.4062 z" />
    <path style="fill:#000000" d="m 2600.8125,-1016.2812 -27.3125,12.4687 c -1.3818,3.379 -2.673,6.814 -3.875,10.2812 l 12.5,27.3438 18.6875,-50.0937 z" />
    <path style="fill:#000000" d="m 2603.3125,-1015.3438 -18.6875,50.0938 34.4062,-15.7188 -15.7187,-34.3751 z" />
    <path style="fill:#000000" d="m 2790.7188,-1009.6562 -34.4063,15.7187 15.7187,34.4062 18.6876,-50.1249 z" />
    <path style="fill:#000000" d="m 2950.5938,-1000.8438 -3.8126,10.25 6.5313,-2.9688 c -0.8484,-2.4459 -1.7805,-4.8788 -2.7187,-7.2813 z" />
    <path style="fill:#000000" d="m 2752.0625,-992 -34.375,15.75 15.7187,34.375 18.6563,-50.125 z" />
    <path style="fill:#000000" d="m 2754.5625,-991.0625 -18.6563,50.125 34.375,-15.7188 -15.7187,-34.4062 z" />
    <path style="fill:#000000" d="m 2954.1875,-990.9375 -7.9687,3.6562 15.7187,34.4062 0.6563,-1.75 c -1.7001,-12.5025 -4.5375,-24.6417 -8.4063,-36.3125 z" />
    <path style="fill:#000000" d="m 2568.3438,-989.6875 c -3.7097,11.4412 -6.4303,23.3317 -8.0626,35.5625 l 20.125,-9.1875 -12.0624,-26.375 z" />
    <path style="fill:#000000" d="m 2847.0312,-988.6562 -34.4062,15.7188 15.7188,34.4062 18.6874,-50.125 z" />
    <path style="fill:#000000" d="m 2849.5312,-987.7188 -18.6874,50.0938 34.4062,-15.7188 -15.7188,-34.375 z" />
    <path style="fill:#000000" d="m 2941.9688,-985.3438 -34.4063,15.7188 15.7187,34.4062 18.6876,-50.125 z" />
    <path style="fill:#000000" d="m 2944.4688,-984.4062 -18.6563,50.125 34.375,-15.7188 -15.7187,-34.4062 z" />
    <path style="fill:#000000" d="m 2618.4688,-977.6562 -34.4063,15.7188 15.7187,34.4062 18.6876,-50.125 z" />
    <path style="fill:#000000" d="m 2715.9375,-973.375 -18.6875,50.0938 34.4062,-15.7188 -15.7187,-34.375 z" />
    <path style="fill:#000000" d="m 2810.875,-970.0625 -18.6562,50.125 34.375,-15.7188 -15.7188,-34.4062 z" />
    <path style="fill:#000000" d="m 2903.3125,-967.6875 -34.375,15.7188 15.7187,34.4062 18.6563,-50.125 z" />
    <path style="fill:#000000" d="m 2905.8438,-966.75 -18.6876,50.125 34.4063,-15.7188 -15.7187,-34.4062 z" />
    <path style="fill:#000000" d="m 2579.8125,-960 -19.9375,9.125 c -0.9162,7.8256 -1.4062,15.7721 -1.4062,23.8438 0,4.052 0.1096,8.0693 0.3437,12.0625 l 2.3437,5.0938 18.6563,-50.125 z" />
    <path style="fill:#000000" d="m 2582.3438,-959.0625 -18.6876,50.125 34.4063,-15.7188 -15.7187,-34.4062 z" />
    <path style="fill:#000000" d="m 2674.7812,-956.6562 -34.4062,15.7188 15.7188,34.4062 18.6874,-50.125 z" />
    <path style="fill:#000000" d="m 2769.7188,-953.3438 -34.375,15.7188 15.7187,34.4062 18.6563,-50.125 z" />
    <path style="fill:#000000" d="m 2864.6875,-950.0312 -34.4063,15.75 15.7188,34.375 18.6875,-50.125 z" />
    <path style="fill:#000000" d="m 2867.1875,-949.0938 -18.6875,50.125 34.4062,-15.7188 -15.7187,-34.4062 z" />
    <path style="fill:#000000" d="m 2959.625,-946.6875 -34.375,15.7188 15.7188,34.4062 18.6562,-50.125 z" />
    <path style="fill:#000000" d="m 2962.125,-945.75 -18.6562,50.0938 19.75,-9.0312 c 0.8042,-7.3415 1.25,-14.7881 1.25,-22.3438 0,-4.9702 -0.1801,-9.9006 -0.5313,-14.7812 l -1.8125,-3.9375 z" />
    <path style="fill:#000000" d="m 2638.625,-938.0625 -18.6562,50.125 34.4062,-15.7188 -15.75,-34.4062 z" />
    <path style="fill:#000000" d="m 2733.5938,-934.75 -18.6876,50.125 34.4063,-15.7188 -15.7187,-34.4062 z" />
    <path style="fill:#000000" d="m 2826.0312,-932.3438 -34.4062,15.7188 15.75,34.375 18.6562,-50.0938 z" />
    <path style="fill:#000000" d="m 2828.5312,-931.4062 -18.6562,50.0938 34.375,-15.7188 -15.7188,-34.375 z" />
    <path style="fill:#000000" d="m 2921,-929.0312 -34.4062,15.7188 15.7187,34.4062 18.6875,-50.125 z" />
    <path style="fill:#000000" d="m 2923.5,-928.0938 -18.6875,50.125 34.4063,-15.7188 -15.7188,-34.4062 z" />
    <path style="fill:#000000" d="m 2597.5,-921.3438 -34.4062,15.7188 15.7187,34.4062 18.6875,-50.125 z" />
    <path style="fill:#000000" d="m 2600,-920.4062 -18.6875,50.125 l 34.4063,-15.7188 -15.7188,-34.4062 z" />
    <path style="fill:#000000" d="m 2789.9062,-913.75 -18.6874,50.0938 34.4062,-15.7188 -15.7188,-34.375 z" />
    <path style="fill:#000000" d="m 2882.3438,-911.375 -34.4063,15.7188 15.7187,34.4062 18.6876,-50.125 z" />
    <path style="fill:#000000" d="m 2884.8438,-910.4375 -18.6876,50.125 34.4063,-15.7188 -15.7187,-34.4062 z" />
    <path style="fill:#000000" d="m 2561.3438,-902.75 -1.0626,2.875 c 1.6339,12.2144 4.3567,24.1047 8.0626,35.5312 l 8.7187,-4 -15.7187,-34.4062 z" />
    <path style="fill:#000000" d="m 2962.875,-901.4688 -19.9688,9.125 12.1563,26.5938 c 3.6334,-11.4907 6.2697,-23.4449 7.8125,-35.7188 z" />
    <path style="fill:#000000" d="m 2748.75,-897.0312 -34.4062,15.7188 15.7187,34.4062 18.6875,-50.125 z" />
    <path style="fill:#000000" d="m 2843.6875,-893.7188 -34.375,15.7188 15.7187,34.4062 18.6563,-50.125 z" />
    <path style="fill:#000000" d="m 2846.2188,-892.7812 -18.6876,50.125 34.4063,-15.7188 -15.7187,-34.4062 z" />
    <path style="fill:#000000" d="m 2938.6562,-890.375 -34.4062,15.7188 15.7188,34.375 18.6874,-50.0938 z" />
    <path style="fill:#000000" d="m 2941.1562,-889.4688 -18.6874,50.125 27.6562,-12.625 c 1.2924,-3.2457 2.5291,-6.5182 3.6562,-9.8438 l -12.625,-27.6562 z" />
    <path style="fill:#000000" d="m 2615.1562,-882.6875 -34.4062,15.7188 15.7188,34.375 18.6874,-50.0938 z" />
    <path style="fill:#000000" d="m 2617.6562,-881.75 -18.6874,50.0938 34.4062,-15.7188 -15.7188,-34.375 z" />
    <path style="fill:#000000" d="m 2710.0938,-879.375 -34.375,15.7188 15.7187,34.4062 18.6563,-50.125 z" />
    <path style="fill:#000000" d="m 2805.0625,-876.0625 -34.4063,15.7188 15.7188,34.4062 18.6875,-50.125 z" />
    <path style="fill:#000000" d="m 2807.5625,-875.125 -18.6875,50.125 34.4062,-15.7188 -15.7187,-34.4062 z" />
    <path style="fill:#000000" d="m 2900,-872.7188 -34.4062,15.7188 15.7187,34.4062 18.6875,-50.125 z" />
    <path style="fill:#000000" d="m 2902.5,-871.7812 -18.6562,50.0938 34.375,-15.7188 -15.7188,-34.375 z" />
    <path style="fill:#000000" d="m 2576.5,-865.0312 -7.3125,3.3438 c 0.9355,2.7544 1.9821,5.4565 3.0313,8.1562 l 4.2812,-11.5 z" />
    <path style="fill:#000000" d="m 2579,-864.0938 -5.3125,14.2812 c 3.4478,8.3762 7.4455,16.4805 11.9375,24.25 l 9.0938,-4.1562 -15.7188,-34.375 z" />
    <path style="fill:#000000" d="m 2671.4688,-861.7188 -34.4063,15.7188 15.7187,34.4062 18.6876,-50.125 z" />
    <path style="fill:#000000" d="m 2673.9688,-860.7812 -18.6876,50.125 34.4063,-15.7188 -15.7187,-34.4062 z" />
    <path style="fill:#000000" d="m 2768.9062,-857.4688 -18.6562,50.125 34.375,-15.7188 -15.7188,-34.4062 z" />
    <path style="fill:#000000" d="m 2861.3438,-855.0625 -34.375,15.7188 15.7187,34.4062 18.6563,-50.125 z" />
    <path style="fill:#000000" d="m 2863.875,-854.125 -18.6875,50.125 34.4063,-15.7188 -15.7188,-34.4062 z" />
    <path style="fill:#000000" d="m 2948.5938,-848.2188 -26.6876,12.1875 9.3126,20.375 c 6.7408,-10.252 12.555,-21.1294 17.375,-32.5625 z" />
    <path style="fill:#000000" d="m 2632.8125,-844.0625 -34.4063,15.7188 15.7188,34.4062 18.6875,-50.125 z" />
    <path style="fill:#000000" d="m 2635.3125,-843.125 -18.6875,50.125 34.4062,-15.7188 -15.7187,-34.4062 z" />
    <path style="fill:#000000" d="m 2822.7188,-837.4062 -34.4063,15.7188 15.7187,34.4062 18.6876,-50.125 z" />
    <path style="fill:#000000" d="m 2825.2188,-836.4688 -18.6876,50.125 34.4063,-15.7188 -15.7187,-34.4062 z" />
    <path style="fill:#000000" d="m 2917.6562,-834.0938 -34.375,15.7188 15.7188,34.4062 18.6562,-50.125 z" />
    <path style="fill:#000000" d="m 2920.1562,-833.1562 -18.6562,50.125 5.5312,-2.5312 c 8.211,-8.4482 15.7236,-17.6038 22.375,-27.375 l -9.25,-20.2188 z" />
    <path style="fill:#000000" d="m 2594.1562,-826.375 -7.125,3.25 c 1.1994,2.0094 2.4215,3.9738 3.6876,5.9375 l 3.4374,-9.1875 z" />
    <path style="fill:#000000" d="m 2596.6875,-825.4688 -4.125,11.0625 c 5.6322,8.4292 11.8597,16.4316 18.6563,23.9062 l 1.1874,-0.5625 -15.7187,-34.4062 z" />
    <path style="fill:#000000" d="m 2689.125,-823.0625 -34.4062,15.7188 15.7187,34.4062 18.6875,-50.125 z" />
    <path style="fill:#000000" d="m 2691.625,-822.125 -18.6875,50.125 34.4063,-15.75 -15.7188,-34.375 z" />
    <path style="fill:#000000" d="m 2784.0625,-819.75 -34.4063,15.7188 15.75,34.4062 18.6563,-50.125 z" />
    <path style="fill:#000000" d="m 2786.5625,-818.8125 -18.6563,50.125 34.375,-15.7188 -15.7187,-34.4062 z" />
    <path style="fill:#000000" d="m 2879.0312,-816.4062 -34.4062,15.7188 15.7188,34.375 18.6874,-50.0938 z" />
    <path style="fill:#000000" d="m 2881.5312,-815.5 -18.6874,50.125 34.4062,-15.7188 -15.7188,-34.4062 z" />
    <path style="fill:#000000" d="m 2650.4688,-805.4062 -34.4063,15.7188 3.625,7.9062 c 5.262,5.1375 10.769,10.0168 16.5625,14.5625 l 14.2188,-38.1875 z" />
    <path style="fill:#000000" d="m 2652.9688,-804.4688 -14.5,38.9688 c 2.5611,1.9532 5.1889,3.8241 7.8437,5.6562 l 22.375,-10.2188 -15.7187,-34.4062 z" />
    <path style="fill:#000000" d="m 2745.4375,-802.0938 -34.4063,15.7188 15.7188,34.4062 18.6875,-50.125 z" />
    <path style="fill:#000000" d="m 2747.9375,-801.1562 -18.6875,50.125 34.4062,-15.7188 -15.7187,-34.4062 z" />
    <path style="fill:#000000" d="m 2840.375,-798.75 -34.4062,15.7188 15.7187,34.375 18.6875,-50.0938 z" />
    <path style="fill:#000000" d="m 2842.875,-797.8125 -18.6562,50.0938 34.375,-15.7188 -15.7188,-34.375 z" />
    <path style="fill:#000000" d="m 2706.7812,-784.4062 -34.4062,15.7188 13.8438,30.25 c 0.987,0.3942 1.9741,0.7772 2.9687,1.1562 l 17.5937,-47.125 z" />
    <path style="fill:#000000" d="m 2709.2812,-783.5 -17.5937,47.1562 c 1.0077,0.3688 2.0161,0.7405 3.0313,1.0938 l 27.2574,-14.9531 -15.7188,-34.4062 z" />
    <path style="fill:#000000" d="m 2801.7188,-781.0938 -34.375,15.7188 15.7187,34.4062 18.6563,-50.125 z" />
    <path style="fill:#000000" d="m 2804.25,-780.1562 -18.6875,50.0938 34.4063,-15.7188 -15.7188,-34.375 z" />
    <path style="fill:#000000" d="m 2901.3125,-779.9062 -0.375,0.1875 0.062,0.125 c 0.1066,-0.1009 0.2061,-0.2114 0.3125,-0.3125 z" />
    <path style="fill:#000000" d="m 2896.6875,-777.7812 -34.4063,15.7188 4.0626,8.875 c 10.3548,-6.2614 20.1186,-13.4237 29.1562,-21.375 l 1.1875,-3.2188 z" />
    <path style="fill:#000000" d="m 2668.125,-766.75 -19.125,8.75 c 4.1994,2.8 8.5255,5.4188 12.9375,7.9062 l 6.1875,-16.6562 z" />
    <path style="fill:#000000" d="m 2670.625,-765.8125 -6.3438,17.0312 c 5.8915,3.2194 11.9289,6.1785 18.1563,8.8125 l -11.8125,-25.8438 z" />
    <path style="fill:#000000" d="m 2763.0938,-763.4375 -34.4063,15.7188 10.25,22.4375 c 3.1891,0.3524 6.3931,0.6409 9.625,0.8438 l 14.5313,-39 z" />
    <path style="fill:#000000" d="m 2765.5938,-762.5 -14.25,38.2188 c 3.3572,0.1651 6.7268,0.25 10.125,0.25 3.9259,0 7.8166,-0.1239 11.6874,-0.3438 l 8.1563,-3.7188 -15.7187,-34.4062 z" />
    <path style="fill:#000000" d="m 2858.0312,-760.125 -34.4062,15.7188 4.2188,9.25 c 8.53,-2.9512 16.8099,-6.4549 24.7812,-10.4688 l 5.4062,-14.5 z" />
    <path style="fill:#000000" d="m 2860.5312,-759.1875 -4.375,11.75 c 2.623,-1.3859 5.1967,-2.8479 7.75,-4.3438 l -3.375,-7.4062 z" />
    <path style="fill:#000000" d="m 2724.4375,-745.7812 -25.8437,11.8125 c 6.3536,2.0675 12.8572,3.8408 19.4687,5.2812 l 6.375,-17.0938 z" />
    <path style="fill:#000000" d="m 2726.9375,-744.8438 -6.2187,16.7188 c 4.9349,1.0058 9.9419,1.8281 15,2.4688 l -8.7813,-19.1875 z" />
    <path style="fill:#000000" d="m 2819.4062,-742.4375 -34.4062,15.7188 0.5938,1.25 c 10.1223,-1.1994 20.0155,-3.1174 29.625,-5.75 l 4.1874,-11.2188 z" />
    <path style="fill:#000000" d="m 2821.9062,-741.5312 -3.5,9.4062 c 2.2889,-0.6676 4.5579,-1.3797 6.8126,-2.125 l -3.3126,-7.2812 z" />
  </g>
  <g id="ot-logo-main" transform="matrix(0.31527,0,0,0.31527,-806.61086,356.26602)">
    <path style="fill:#ffffff" d="m 2850.3438,-1083.625 -34.4063,15.7188 15.7187,34.4062 18.6876,-50.125 z" />
    <path style="fill:#ffffff" d="m 2814.2188,-1065.0312 -18.6876,50.125 34.4063,-15.7188 -15.7187,-34.4062 z" />
    <path style="fill:#ffffff" d="m 2773.0625,-1048.2812 -34.4063,15.7187 15.7188,34.375 18.6875,-50.0937 z" />
    <path style="fill:#ffffff" d="m 2775.5625,-1047.3438 -18.6875,50.0938 34.4062,-15.7188 -15.7187,-34.375 z" />
    <path style="fill:#ffffff" d="m 2734.4062,-1030.625 -34.4062,15.7188 15.7188,34.4062 18.6874,-50.125 z" />
    <path style="fill:#ffffff" d="m 2829.375,-1027.3125 -34.4062,15.7187 15.7187,34.4063 18.6875,-50.125 z" />
    <path style="fill:#ffffff" d="m 2831.875,-1026.375 -18.6875,50.125 34.4063,-15.7188 -15.7188,-34.4062 z" />
    <path style="fill:#ffffff" d="m 2695.75,-1012.9688 -34.375,15.7188 15.7188,34.4062 18.6562,-50.1251 z" />
    <path style="fill:#ffffff" d="m 2698.2812,-1012.0312 -18.6874,50.1249 34.4062,-15.7188 -15.7188,-34.4062 z" />
    <path style="fill:#ffffff" d="m 2793.2188,-1008.7188 -18.6876,50.1251 34.4063,-15.7188 -15.7187,-34.4063 z" />
    <path style="fill:#ffffff" d="m 2885.6562,-1006.3125 -34.375,15.7188 15.7188,34.375 18.6562,-50.0938 z" />
    <path style="fill:#ffffff" d="m 2888.1875,-1005.375 -18.6875,50.0938 34.4062,-15.7188 -15.7187,-34.375 z" />
    <path style="fill:#ffffff" d="m 2657.125,-995.3125 -34.4062,15.7188 15.7187,34.4062 18.6875,-50.125 z" />
    <path style="fill:#ffffff" d="m 2659.625,-994.375 -18.6875,50.125 34.4063,-15.7188 -15.7188,-34.4062 z" />
    <path style="fill:#ffffff" d="m 2620.9688,-976.7188 -18.6563,50.125 34.375,-15.7188 -15.7187,-34.4062 z" />
    <path style="fill:#ffffff" d="m 2713.4375,-974.3125 -34.4063,15.7188 15.7188,34.375 18.6875,-50.0938 z" />
    <path style="fill:#ffffff" d="m 2808.375,-971 -34.4062,15.7188 15.7187,34.4062 18.6875,-50.125 z" />
    <path style="fill:#ffffff" d="m 2677.2812,-955.7188 -18.6874,50.0938 34.4062,-15.7188 -15.7188,-34.375 z" />
    <path style="fill:#ffffff" d="m 2772.25,-952.4062 -18.6875,50.125 34.4063,-15.7188 -15.7188,-34.4062 z" />
    <path style="fill:#ffffff" d="m 2636.125,-939 -34.375,15.7188 15.7188,34.4062 18.6562,-50.125 z" />
    <path style="fill:#ffffff" d="m 2731.0938,-935.6875 -34.4063,15.7188 15.7187,34.4062 18.6876,-50.125 z" />
    <path style="fill:#ffffff" d="m 2692.4375,-918.0312 -34.4063,15.7188 15.7188,34.4062 18.6875,-50.125 z" />
    <path style="fill:#ffffff" d="m 2694.9375,-917.0938 -18.6563,50.125 34.375,-15.7188 -15.7187,-34.4062 z" />
    <path style="fill:#ffffff" d="m 2787.4062,-914.6875 -34.4062,15.7188 15.7188,34.4062 18.6874,-50.125 z" />
    <path style="fill:#ffffff" d="m 2653.7812,-900.3438 -34.375,15.7188 15.7188,34.375 18.6562,-50.0938 z" />
    <path style="fill:#ffffff" d="m 2656.3125,-899.4375 -18.6875,50.125 34.4062,-15.7188 -15.7187,-34.4062 z" />
    <path style="fill:#ffffff" d="m 2751.25,-896.0938 -18.6875,50.125 34.4063,-15.7188 -15.7188,-34.4062 z" />
    <path style="fill:#ffffff" d="m 2712.5938,-878.4375 -18.6563,50.125 34.375,-15.7188 -15.7187,-34.4062 z" />
    <path style="fill:#ffffff" d="m 2766.4062,-858.375 -34.4062,15.7188 15.7188,34.375 18.6874,-50.0938 z" />
    <path style="fill:#ffffff" d="m 2727.75,-840.7188 -34.375,15.7188 15.7188,34.375 18.6562,-50.0938 z" />
    <path style="fill:#ffffff" d="m 2730.2812,-839.7812 -18.6874,50.0938 34.4062,-15.7188 -15.7188,-34.375 z" />
  </g>
</svg>
